<svg width="33" height="33" viewBox="0 0 33 33" fill="none" xmlns="http://www.w3.org/2000/svg">
<g clip-path="url(#clip0_35_59)">
<mask id="mask0_35_59" style="mask-type:luminance" maskUnits="userSpaceOnUse" x="0" y="0" width="33" height="33">
<path d="M32.5733 0H0V32.5733H32.5733V0Z" fill="white"/>
</mask>
<g mask="url(#mask0_35_59)">
<path d="M21.0382 5.95499L21.0381 5.96118C21.038 5.96799 21.0377 5.97965 21.0371 5.99599C21.0358 6.02869 21.0331 6.08011 21.0275 6.1489C21.0165 6.28651 20.9939 6.49349 20.9482 6.75904C20.8568 7.29016 20.6726 8.05508 20.3017 8.96793C19.5614 10.7902 18.0717 13.2154 15.0645 15.5533L15.0645 15.5533C12.4826 17.5608 10.2282 20.8274 9.63334 23.9301L9.63305 23.9317C9.59597 24.1285 9.44359 24.2834 9.24779 24.3237C9.05192 24.364 8.85104 24.282 8.73915 24.1154L8.73853 24.1145C7.04361 21.603 5.14146 16.9538 8.33067 11.4232C11.2445 6.37037 16.556 3.89546 20.6945 5.15658C20.8939 5.22285 21.0285 5.40857 21.0293 5.61806L21.0293 5.62796L21.0298 5.63785C21.0336 5.72666 21.0358 5.80758 21.0369 5.86635C21.0375 5.89564 21.0378 5.91922 21.038 5.93527L21.0382 5.95341L21.0382 5.95499Z" stroke="white"/>
<path d="M11.9438 26.3261L11.9436 26.3102L11.9436 26.304C11.9438 26.2972 11.9441 26.2855 11.9447 26.2691C11.946 26.2365 11.9487 26.185 11.9542 26.1162C11.9653 25.9786 11.9878 25.7717 12.0336 25.5061C12.125 24.975 12.3092 24.2101 12.68 23.2972C13.4203 21.475 14.9098 19.0498 17.9168 16.7119C20.4764 14.7221 22.7122 11.4959 23.3314 8.41971L23.3314 8.41955C23.3739 8.20788 23.5397 8.04309 23.7499 8.00199L23.7501 8.00195C23.9618 7.96045 24.1768 8.05061 24.2954 8.23006L24.2962 8.23112C25.9779 10.7605 27.8066 15.3693 24.6507 20.842C21.7443 25.8818 16.4519 28.3575 12.3173 27.1176C12.1007 27.0467 11.9539 26.8451 11.953 26.6175L11.9529 26.6062L11.9524 26.5948C11.9484 26.5134 11.9461 26.4403 11.9449 26.3876C11.9443 26.3613 11.944 26.3403 11.9438 26.3261Z" stroke="white"/>
</g>
<mask id="mask1_35_59" style="mask-type:luminance" maskUnits="userSpaceOnUse" x="-2" y="0" width="33" height="33">
<path d="M30.5733 0H-2V32.5733H30.5733V0Z" fill="white"/>
</mask>
<g mask="url(#mask1_35_59)">
<path fill-rule="evenodd" clip-rule="evenodd" d="M18.8452 4.67983C19.2516 4.81159 19.5277 5.18895 19.5293 5.61615C19.5374 5.80361 19.5382 5.95613 19.5382 5.95613C19.5382 5.95613 19.5317 11.1588 13.3714 15.9481C10.8655 17.8964 8.69207 21.0633 8.1244 24.0243C8.04981 24.4202 7.7433 24.7323 7.34851 24.8135C6.95372 24.8947 6.54908 24.7292 6.32408 24.3942C4.56846 21.7927 2.57758 16.9307 5.89753 11.1734C8.89109 5.98227 14.4185 3.32755 18.8452 4.67983Z" fill="#704638"/>
<path fill-rule="evenodd" clip-rule="evenodd" d="M10.1685 27.595C9.74387 27.4592 9.4547 27.0654 9.45299 26.6194C9.44444 26.4459 9.44354 26.309 9.44354 26.309C9.44354 26.309 9.45006 21.1064 15.6099 16.3171C18.0936 14.3864 20.25 11.2585 20.8412 8.32106C20.9234 7.91169 21.2443 7.59142 21.6539 7.51129C22.0643 7.43083 22.4821 7.60575 22.7125 7.95428C24.4552 10.5753 26.3689 15.3952 23.0839 21.0917C20.0977 26.2699 14.5904 28.9244 10.1685 27.595Z" fill="#704638"/>
</g>
</g>
<defs>
<clipPath id="clip0_35_59">
<rect width="33" height="33" fill="white"/>
</clipPath>
</defs>
</svg>
