<svg width="23" height="26" viewBox="0 0 23 26" fill="none" xmlns="http://www.w3.org/2000/svg">
<path fill-rule="evenodd" clip-rule="evenodd" d="M16.3227 0.385176C16.7727 0.530306 17.0785 0.945962 17.0803 1.41651C17.0893 1.62299 17.0902 1.791 17.0902 1.791C17.0902 1.791 17.083 7.52164 10.2602 12.7969C7.48485 14.9429 5.07767 18.4312 4.44896 21.6927C4.36634 22.1288 4.02687 22.4725 3.58963 22.5619C3.15238 22.6513 2.70422 22.4691 2.45503 22.1001C0.510614 19.2346 -1.69436 13.8793 1.98261 7.53769C5.2981 1.81979 11.4199 -1.10433 16.3227 0.385176Z" fill="white"/>
<path fill-rule="evenodd" clip-rule="evenodd" d="M6.71294 25.6257C6.2426 25.4761 5.92233 25.0423 5.92044 24.5512C5.91097 24.36 5.90997 24.2092 5.90997 24.2092C5.90997 24.2092 5.91719 18.4787 12.7395 13.2034C15.4903 11.0767 17.8785 7.63146 18.5333 4.39592C18.6244 3.94501 18.9797 3.59223 19.4334 3.50397C19.8879 3.41535 20.3506 3.60802 20.6059 3.99192C22.5359 6.8789 24.6554 12.188 21.0171 18.4625C17.7099 24.1662 11.6103 27.09 6.71294 25.6257Z" fill="white"/>
</svg>
