<svg width="21" height="24" viewBox="0 0 21 24" fill="none" xmlns="http://www.w3.org/2000/svg">
<path fill-rule="evenodd" clip-rule="evenodd" d="M14.7378 0.34969C15.1442 0.481449 15.4202 0.858812 15.4219 1.28601C15.43 1.47347 15.4308 1.62599 15.4308 1.62599C15.4308 1.62599 15.4243 6.82868 9.26397 11.6179C6.7581 13.5662 4.58465 16.7332 4.01698 19.6942C3.94239 20.0901 3.63588 20.4021 3.24109 20.4833C2.8463 20.5645 2.44165 20.399 2.21665 20.064C0.461036 17.4626 -1.52985 12.6006 1.7901 6.84326C4.78367 1.65213 10.3111 -1.00259 14.7378 0.34969Z" fill="#704638"/>
<path fill-rule="evenodd" clip-rule="evenodd" d="M6.06112 23.2649C5.63645 23.129 5.34728 22.7352 5.34557 22.2893C5.33702 22.1158 5.33612 21.9789 5.33612 21.9789C5.33612 21.9789 5.34264 16.7763 11.5025 11.987C13.9862 10.0562 16.1426 6.92838 16.7338 3.99092C16.816 3.58155 17.1369 3.26128 17.5465 3.18115C17.9569 3.10069 18.3746 3.27561 18.6051 3.62414C20.3478 6.24515 22.2614 11.0651 18.9764 16.7616C15.9903 21.9398 10.4829 24.5943 6.06112 23.2649Z" fill="#704638"/>
</svg>
