<svg width="21" height="24" viewBox="0 0 21 24" fill="none" xmlns="http://www.w3.org/2000/svg">
<path d="M14.9308 1.62485L14.9307 1.63104C14.9306 1.63785 14.9303 1.64951 14.9296 1.66585C14.9283 1.69855 14.9257 1.74997 14.9201 1.81876C14.909 1.95637 14.8865 2.16335 14.8408 2.4289C14.7494 2.96002 14.5652 3.72494 14.1943 4.63779C13.4539 6.46005 11.9643 8.88527 8.95708 11.2232L8.95707 11.2232C6.37516 13.2306 4.12077 16.4973 3.52592 19.6L3.52562 19.6016C3.48855 19.7984 3.33617 19.9533 3.14037 19.9936C2.9445 20.0339 2.74362 19.9519 2.63173 19.7853L2.63111 19.7843C0.936192 17.2728 -0.965959 12.6236 2.22325 7.09303C5.13705 2.04023 10.4486 -0.434675 14.587 0.826436C14.7865 0.892715 14.9211 1.07843 14.9219 1.28792L14.9219 1.29782L14.9223 1.30771C14.9262 1.39652 14.9283 1.47744 14.9295 1.53621C14.9301 1.56551 14.9304 1.58908 14.9306 1.60513L14.9308 1.62327L14.9308 1.62485Z" stroke="white"/>
<path d="M5.83635 21.996L5.83615 21.98L5.83623 21.9738C5.83636 21.967 5.83666 21.9554 5.83731 21.939C5.8386 21.9063 5.84128 21.8549 5.84682 21.7861C5.8579 21.6485 5.88042 21.4415 5.92614 21.176C6.01758 20.6448 6.20174 19.8799 6.57259 18.9671C7.31289 17.1449 8.8024 14.7197 11.8094 12.3817C14.369 10.3919 16.6048 7.1658 17.2239 4.08957L17.224 4.08941C17.2665 3.87774 17.4323 3.71295 17.6425 3.67185L17.6426 3.67181C17.8543 3.63031 18.0694 3.72047 18.188 3.89992L18.1887 3.90098C19.8705 6.43038 21.6992 11.0392 18.5433 16.5118C15.6369 21.5517 10.3445 24.0273 6.20992 22.7875C5.99327 22.7165 5.84644 22.5149 5.84557 22.2874L5.84552 22.276L5.84496 22.2647C5.84095 22.1833 5.83873 22.1102 5.83751 22.0574C5.8369 22.0312 5.83654 22.0101 5.83635 21.996Z" stroke="white"/>
</svg>
