<svg width="33" height="33" viewBox="0 0 33 33" fill="none" xmlns="http://www.w3.org/2000/svg">
<mask id="mask0_2_532" style="mask-type:luminance" maskUnits="userSpaceOnUse" x="0" y="0" width="33" height="33">
<path d="M32.5733 0H0V32.5733H32.5733V0Z" fill="white"/>
</mask>
<g mask="url(#mask0_2_532)">
<path fill-rule="evenodd" clip-rule="evenodd" d="M20.8452 4.67983C21.2516 4.81159 21.5277 5.18895 21.5293 5.61615C21.5374 5.80361 21.5382 5.95613 21.5382 5.95613C21.5382 5.95613 21.5317 11.1588 15.3714 15.9481C12.8655 17.8964 10.6921 21.0633 10.1244 24.0243C10.0498 24.4202 9.7433 24.7323 9.34851 24.8135C8.95372 24.8947 8.54908 24.7292 8.32408 24.3942C6.56846 21.7927 4.57758 16.9307 7.89753 11.1734C10.8911 5.98227 16.4185 3.32755 20.8452 4.67983Z" fill="#704638"/>
<path fill-rule="evenodd" clip-rule="evenodd" d="M12.1685 27.595C11.7439 27.4592 11.4547 27.0654 11.453 26.6194C11.4444 26.4459 11.4435 26.309 11.4435 26.309C11.4435 26.309 11.4501 21.1064 17.6099 16.3171C20.0936 14.3864 22.25 11.2585 22.8412 8.32106C22.9234 7.91169 23.2443 7.59142 23.6539 7.51129C24.0643 7.43083 24.4821 7.60575 24.7125 7.95428C26.4552 10.5753 28.3689 15.3952 25.0839 21.0917C22.0977 26.2699 16.5904 28.9244 12.1685 27.595Z" fill="#704638"/>
</g>
</svg>
