<svg width="31" height="30" viewBox="0 0 31 30" fill="none" xmlns="http://www.w3.org/2000/svg">
<path d="M14.3215 10.0002C14.6206 10.0003 14.9074 10.1321 15.1188 10.3665L20.7009 16.554L26.283 10.3665C26.4957 10.1388 26.7805 10.0128 27.0762 10.0157C27.3719 10.0185 27.6547 10.15 27.8638 10.3817C28.0729 10.6135 28.1915 10.927 28.194 11.2547C28.1966 11.5825 28.083 11.8982 27.8775 12.134L21.4982 19.2052C21.2867 19.4396 20.9999 19.5712 20.7009 19.5712C20.4019 19.5712 20.1151 19.4396 19.9036 19.2052L13.5243 12.134C13.3666 11.9592 13.2592 11.7365 13.2157 11.494C13.1723 11.2516 13.1946 11.0003 13.2799 10.7719C13.3653 10.5436 13.5098 10.3483 13.6952 10.211C13.8806 10.0736 14.0985 10.0003 14.3215 10.0002Z" fill="#774A47"/>
</svg>
