<svg width="349" height="242" viewBox="0 0 349 242" fill="none" xmlns="http://www.w3.org/2000/svg">
<path fill-rule="evenodd" clip-rule="evenodd" d="M121.208 0.14201C107.688 0.53401 106.539 1.654 102.648 18.227C101.452 23.323 99.8858 27.717 99.1698 27.992C98.4528 28.267 93.6598 26.489 88.5188 24.041C65.3198 12.993 41.1728 12.014 22.6388 21.37C16.4048 24.517 6.09885 34.827 3.30785 40.708C-0.68115 49.113 -1.10515 64.306 2.26885 77.853C4.59885 87.208 12.8518 102.84 21.5378 114.353C26.2418 120.587 36.8268 132.102 47.5938 142.697L65.7268 160.542L64.9648 164.197C63.5308 171.077 64.2318 192.411 66.1028 198.853C69.5968 210.88 75.2478 219.968 84.6418 228.664C91.3778 234.901 94.2068 236.613 102.491 239.463C107.735 241.267 112.455 241.352 206.079 241.329C269.486 241.313 305.746 240.941 308.624 240.278C320.236 237.602 335.061 224.484 341.636 211.067C347.722 198.65 348.976 192.346 348.435 176.9C347.995 164.343 347.655 162.65 339.406 131.853C330.44 98.375 323.985 73.386 320.162 57.353C318.046 48.478 314.303 33.985 309.573 16.353C306.729 5.74801 305.79 3.66 303.064 1.874C300.929 0.475004 291.136 0.272993 215.915 0.0749933C169.306 -0.0470067 126.688 -0.0169901 121.208 0.14201ZM41.4838 32.313C38.9058 32.784 34.0968 34.608 30.7968 36.367C18.6828 42.824 14.1788 55.163 18.1928 70.893C19.9928 77.945 27.3259 93.595 31.9179 100.184C41.1149 113.381 65.7708 139.353 69.1018 139.353C70.9008 139.353 72.2828 136.969 73.5208 131.733C74.0258 129.599 77.0028 117.953 80.1358 105.853C90.9118 64.248 94.5458 49.189 94.0938 48.022C93.0278 45.274 76.8348 36.617 67.6718 33.897C61.0428 31.929 47.9278 31.136 41.4838 32.313Z" fill="#977C5A"/>
</svg>
