<svg width="22" height="39" viewBox="0 0 22 39" fill="none" xmlns="http://www.w3.org/2000/svg">
<path d="M21.6291 26.05C21.6291 27.5167 21.2791 28.7333 20.5791 29.7C19.9124 30.6667 18.7458 31.8167 17.0791 33.15C15.7791 34.1833 14.2624 34.8 12.5291 35C12.5291 36.5 12.5458 37.4 12.5791 37.7C12.5791 38.0333 12.4624 38.2833 12.2291 38.45C12.0291 38.6167 11.7624 38.7 11.4291 38.7C10.9958 38.7 10.5958 38.55 10.2291 38.25C9.89577 37.9833 9.7291 37.6 9.7291 37.1C9.7291 36.5333 9.69577 35.8833 9.6291 35.15C8.89577 35.1167 8.21244 34.9833 7.5791 34.75C6.94577 34.5167 6.41244 34.3 5.9791 34.1C5.5791 33.9 5.31244 33.7667 5.1791 33.7C3.9791 32.8667 3.0791 32.2 2.4791 31.7C1.8791 31.1667 1.39577 30.5833 1.0291 29.95C0.662435 29.3167 0.479102 28.5667 0.479102 27.7C0.479102 26.8667 0.662435 26.3 1.0291 26C1.39577 25.6667 2.06244 25.5 3.0291 25.5C3.46244 25.5 3.8791 25.6167 4.2791 25.85C4.6791 26.0833 4.9791 26.3667 5.1791 26.7C6.2791 28.6667 7.69577 29.8833 9.4291 30.35C9.4291 30.15 9.46244 29.0333 9.5291 27C9.59577 24.9667 9.64577 22.9167 9.6791 20.85C7.7791 20.1833 6.4291 19.65 5.6291 19.25C2.39577 17.65 0.779102 15.3167 0.779102 12.25C0.779102 10.95 1.2291 9.61667 2.1291 8.25C3.0291 6.88333 4.0791 5.91666 5.2791 5.35C5.74577 5.11666 6.41244 4.85 7.2791 4.55C8.14577 4.25 8.9791 4 9.7791 3.8C9.7791 2.86667 9.76244 2.18333 9.7291 1.75C9.7291 1.15 9.8791 0.733331 10.1791 0.499997C10.4791 0.233332 10.7791 0.0999993 11.0791 0.0999993C11.8458 0.0999993 12.3124 0.366666 12.4791 0.899998C12.6791 1.43333 12.7624 2.35 12.7291 3.65C13.7958 3.75 14.9791 4.15 16.2791 4.85C17.7791 5.71667 18.8624 6.48333 19.5291 7.15C20.2291 7.78333 20.5791 8.6 20.5791 9.6C20.5791 10.1667 20.3458 10.6333 19.8791 11C19.4124 11.3667 18.6458 11.55 17.5791 11.55C17.1124 11.55 16.5124 11.0833 15.7791 10.15C15.1124 9.41666 14.5958 8.96666 14.2291 8.8C14.0958 8.76666 13.8791 8.7 13.5791 8.6C13.2791 8.46667 12.9791 8.36667 12.6791 8.3C12.6791 11.3333 12.6458 13.85 12.5791 15.85V16.6C14.3791 17.4 15.8624 18.1667 17.0291 18.9C18.6291 19.9 19.7958 20.9 20.5291 21.9C21.2624 22.8667 21.6291 24.25 21.6291 26.05ZM5.8291 12C5.8291 12.6667 6.14577 13.3 6.7791 13.9C7.41244 14.4667 8.14577 14.9 8.9791 15.2L9.7291 15.45V8.25C8.6291 8.48333 7.69577 8.91667 6.9291 9.55C6.19577 10.1833 5.8291 11 5.8291 12ZM12.4791 30.3C13.6791 29.9667 14.6458 29.4 15.3791 28.6C16.1124 27.8 16.4791 26.9833 16.4791 26.15C16.4791 24.6833 15.1624 23.35 12.5291 22.15C12.4958 23.85 12.4791 26.5667 12.4791 30.3Z" fill="#D89B00"/>
</svg>
