<svg width="307" height="61" viewBox="0 0 307 61" fill="none" xmlns="http://www.w3.org/2000/svg">
<g clip-path="url(#clip0_2_392)">
<path fill-rule="evenodd" clip-rule="evenodd" d="M105.598 20.7468C106.097 20.9086 106.436 21.372 106.438 21.8966C106.448 22.1268 106.449 22.3141 106.449 22.3141C106.449 22.3141 106.441 28.703 98.8761 34.5842C95.7989 36.9767 93.1299 40.8657 92.4328 44.5018C92.3412 44.988 91.9648 45.3712 91.48 45.4709C90.9952 45.5706 90.4983 45.3674 90.222 44.956C88.0661 41.7614 85.6213 35.7909 89.6982 28.7209C93.3743 22.3462 100.162 19.0862 105.598 20.7468Z" fill="#776247"/>
<path fill-rule="evenodd" clip-rule="evenodd" d="M94.943 48.8866C94.4215 48.7198 94.0664 48.2362 94.0643 47.6886C94.0538 47.4755 94.0527 47.3074 94.0527 47.3074C94.0527 47.3074 94.0607 40.9186 101.625 35.0374C104.675 32.6664 107.323 28.8254 108.049 25.2182C108.15 24.7155 108.544 24.3222 109.047 24.2238C109.551 24.125 110.064 24.3398 110.347 24.7678C112.487 27.9864 114.837 33.9053 110.803 40.9006C107.136 47.2594 100.373 50.5191 94.943 48.8866Z" fill="#776247"/>
</g>
<path d="M28.5866 49V12.6364H42.5071C45.1349 12.6364 47.3189 13.0507 49.0589 13.8793C50.8108 14.696 52.1188 15.8146 52.983 17.2351C53.8589 18.6555 54.2969 20.2654 54.2969 22.0646C54.2969 23.5443 54.0128 24.8108 53.4446 25.8643C52.8764 26.906 52.1129 27.7524 51.1541 28.4034C50.1953 29.0544 49.1241 29.522 47.9403 29.8061V30.1612C49.2306 30.2322 50.4676 30.6288 51.6513 31.3509C52.8468 32.0611 53.8234 33.0672 54.581 34.3693C55.3385 35.6714 55.7173 37.2457 55.7173 39.0923C55.7173 40.9744 55.2616 42.6671 54.3501 44.1705C53.4387 45.6619 52.0656 46.8397 50.2308 47.7038C48.3961 48.5679 46.0878 49 43.3061 49H28.5866ZM35.174 43.4957H42.2585C44.6496 43.4957 46.3719 43.04 47.4254 42.1286C48.4908 41.2053 49.0234 40.0215 49.0234 38.5774C49.0234 37.5002 48.7571 36.5296 48.2244 35.6655C47.6918 34.7895 46.9342 34.103 45.9517 33.6058C44.9692 33.0968 43.7973 32.8423 42.4361 32.8423H35.174V43.4957ZM35.174 28.1016H41.6903C42.8267 28.1016 43.8506 27.8944 44.7621 27.4801C45.6735 27.054 46.3897 26.4562 46.9105 25.6868C47.4432 24.9055 47.7095 23.9822 47.7095 22.9169C47.7095 21.5083 47.2124 20.3482 46.218 19.4368C45.2356 18.5253 43.7737 18.0696 41.8324 18.0696H35.174V28.1016ZM71.2377 49.5327C68.5034 49.5327 66.1419 48.9645 64.1532 47.8281C62.1764 46.6799 60.6554 45.0582 59.59 42.9631C58.5247 40.8561 57.992 38.3762 57.992 35.5234C57.992 32.718 58.5247 30.2559 59.59 28.1371C60.6672 26.0064 62.1705 24.3492 64.1 23.1655C66.0294 21.9699 68.2962 21.3722 70.9004 21.3722C72.5813 21.3722 74.1674 21.6444 75.6589 22.1889C77.1622 22.7216 78.488 23.5502 79.6362 24.6747C80.7962 25.7992 81.7077 27.2315 82.3706 28.9716C83.0334 30.6998 83.3649 32.7595 83.3649 35.1506V37.1214H61.0105V32.7891H77.2037C77.1918 31.558 76.9255 30.4631 76.4047 29.5043C75.8838 28.5336 75.1558 27.7701 74.2207 27.2138C73.2974 26.6574 72.2202 26.3793 70.9892 26.3793C69.6752 26.3793 68.5211 26.6989 67.5268 27.3381C66.5325 27.9654 65.7572 28.794 65.2008 29.8239C64.6563 30.8419 64.3781 31.9605 64.3663 33.1797V36.9616C64.3663 38.5478 64.6563 39.9091 65.2363 41.0455C65.8163 42.17 66.6272 43.0341 67.6689 43.6378C68.7105 44.2296 69.9297 44.5256 71.3265 44.5256C72.2617 44.5256 73.108 44.3954 73.8656 44.1349C74.6232 43.8627 75.2801 43.4661 75.8365 42.9453C76.3928 42.4245 76.813 41.7794 77.0971 41.0099L83.0985 41.6847C82.7198 43.2708 81.9977 44.6558 80.9324 45.8395C79.8788 47.0114 78.5294 47.9228 76.8841 48.5739C75.2387 49.2131 73.3566 49.5327 71.2377 49.5327ZM124.437 33.0199V49H118.01V21.7273H124.153V26.3615H124.473C125.1 24.8345 126.1 23.6212 127.473 22.7216C128.858 21.822 130.569 21.3722 132.605 21.3722C134.487 21.3722 136.126 21.7746 137.523 22.5795C138.932 23.3845 140.021 24.5504 140.79 26.0774C141.571 27.6044 141.956 29.4569 141.944 31.6349V49H135.517V32.6293C135.517 30.8063 135.043 29.38 134.096 28.3501C133.161 27.3203 131.865 26.8054 130.208 26.8054C129.083 26.8054 128.083 27.054 127.207 27.5511C126.343 28.0365 125.662 28.7408 125.165 29.6641C124.68 30.5874 124.437 31.706 124.437 33.0199ZM142.869 18.1584V12.6364H171.882V18.1584H160.643V49H154.109V18.1584H142.869ZM181.619 33.0199V49H175.191V12.6364H181.477V26.3615H181.796C182.436 24.8227 183.424 23.6094 184.762 22.7216C186.111 21.822 187.827 21.3722 189.911 21.3722C191.805 21.3722 193.456 21.7687 194.865 22.5618C196.273 23.3549 197.362 24.5149 198.132 26.0419C198.913 27.5689 199.303 29.4332 199.303 31.6349V49H192.876V32.6293C192.876 30.7945 192.402 29.3681 191.455 28.3501C190.52 27.3203 189.206 26.8054 187.514 26.8054C186.377 26.8054 185.359 27.054 184.46 27.5511C183.572 28.0365 182.874 28.7408 182.365 29.6641C181.867 30.5874 181.619 31.706 181.619 33.0199ZM215.929 49.5327C213.195 49.5327 210.833 48.9645 208.845 47.8281C206.868 46.6799 205.347 45.0582 204.281 42.9631C203.216 40.8561 202.683 38.3762 202.683 35.5234C202.683 32.718 203.216 30.2559 204.281 28.1371C205.359 26.0064 206.862 24.3492 208.791 23.1655C210.721 21.9699 212.988 21.3722 215.592 21.3722C217.273 21.3722 218.859 21.6444 220.35 22.1889C221.854 22.7216 223.179 23.5502 224.328 24.6747C225.488 25.7992 226.399 27.2315 227.062 28.9716C227.725 30.6998 228.056 32.7595 228.056 35.1506V37.1214H205.702V32.7891H221.895C221.883 31.558 221.617 30.4631 221.096 29.5043C220.575 28.5336 219.847 27.7701 218.912 27.2138C217.989 26.6574 216.912 26.3793 215.681 26.3793C214.367 26.3793 213.213 26.6989 212.218 27.3381C211.224 27.9654 210.449 28.794 209.892 29.8239C209.348 30.8419 209.07 31.9605 209.058 33.1797V36.9616C209.058 38.5478 209.348 39.9091 209.928 41.0455C210.508 42.17 211.319 43.0341 212.36 43.6378C213.402 44.2296 214.621 44.5256 216.018 44.5256C216.953 44.5256 217.799 44.3954 218.557 44.1349C219.315 43.8627 219.972 43.4661 220.528 42.9453C221.084 42.4245 221.504 41.7794 221.789 41.0099L227.79 41.6847C227.411 43.2708 226.689 44.6558 225.624 45.8395C224.57 47.0114 223.221 47.9228 221.575 48.5739C219.93 49.2131 218.048 49.5327 215.929 49.5327ZM231.494 49V21.7273H237.726V26.2727H238.01C238.507 24.6984 239.36 23.4851 240.567 22.6328C241.786 21.7687 243.177 21.3366 244.74 21.3366C245.095 21.3366 245.491 21.3544 245.929 21.3899C246.379 21.4136 246.752 21.455 247.048 21.5142V27.4268C246.776 27.3321 246.344 27.2493 245.752 27.1783C245.172 27.0954 244.609 27.054 244.065 27.054C242.893 27.054 241.84 27.3085 240.904 27.8175C239.981 28.3146 239.253 29.0071 238.721 29.8949C238.188 30.7827 237.922 31.8066 237.922 32.9666V49H231.494ZM260.269 49.5327C257.535 49.5327 255.173 48.9645 253.184 47.8281C251.208 46.6799 249.687 45.0582 248.621 42.9631C247.556 40.8561 247.023 38.3762 247.023 35.5234C247.023 32.718 247.556 30.2559 248.621 28.1371C249.698 26.0064 251.202 24.3492 253.131 23.1655C255.061 21.9699 257.327 21.3722 259.932 21.3722C261.613 21.3722 263.199 21.6444 264.69 22.1889C266.193 22.7216 267.519 23.5502 268.667 24.6747C269.827 25.7992 270.739 27.2315 271.402 28.9716C272.065 30.6998 272.396 32.7595 272.396 35.1506V37.1214H250.042V32.7891H266.235C266.223 31.558 265.957 30.4631 265.436 29.5043C264.915 28.5336 264.187 27.7701 263.252 27.2138C262.329 26.6574 261.251 26.3793 260.02 26.3793C258.706 26.3793 257.552 26.6989 256.558 27.3381C255.564 27.9654 254.788 28.794 254.232 29.8239C253.688 30.8419 253.409 31.9605 253.398 33.1797V36.9616C253.398 38.5478 253.688 39.9091 254.268 41.0455C254.848 42.17 255.658 43.0341 256.7 43.6378C257.742 44.2296 258.961 44.5256 260.358 44.5256C261.293 44.5256 262.139 44.3954 262.897 44.1349C263.654 43.8627 264.311 43.4661 264.868 42.9453C265.424 42.4245 265.844 41.7794 266.128 41.0099L272.13 41.6847C271.751 43.2708 271.029 44.6558 269.964 45.8395C268.91 47.0114 267.561 47.9228 265.915 48.5739C264.27 49.2131 262.388 49.5327 260.269 49.5327Z" fill="#774A47"/>
<defs>
<clipPath id="clip0_2_392">
<rect width="40" height="40" fill="white" transform="translate(80 15)"/>
</clipPath>
</defs>
</svg>
