<svg width="704" height="485" viewBox="0 0 704 485" fill="none" xmlns="http://www.w3.org/2000/svg">
<path fill-rule="evenodd" clip-rule="evenodd" d="M368.448 0.681159C352.056 2.72743 335.122 8.42368 328.318 14.1839C322.318 19.2616 320.681 27.3147 324.532 32.8124L326.606 35.7758H393.249H459.893L461.69 31.502C464.128 25.7031 463.083 21.2906 458.02 15.9996C450.814 8.47034 441.019 4.58843 421.863 1.67165C410.971 0.0133016 378.61 -0.586599 368.448 0.681159ZM293.902 75.8281C289.393 77.1759 279.257 86.6048 276.051 92.4316C274.18 95.8323 273.724 103.214 273.008 141.756C272.149 188.111 270.752 203.93 265.003 232.405C259.063 261.835 254.077 278.18 237.351 323.054C226.753 351.49 224.295 356.945 221.621 357.972C217.991 359.365 206.339 356.317 195.341 351.098C184.221 345.822 173.465 336.393 167.15 326.387C158.276 312.326 157.087 306.792 145.242 224.406C136.579 164.141 134.252 154.205 125.111 138.423C115.95 122.605 102.454 109.88 85.8348 101.394C68.8581 92.7262 55.8765 90.5053 25.1797 91.0212C13.8152 91.2119 3.44255 91.4572 2.1308 91.5665C0.0112047 91.7425 -0.212768 92.9982 0.131166 102.763L0.517763 113.761L27.8459 114.574C52.6718 115.313 56.0831 115.706 65.1 118.863C91.3684 128.06 108.834 149.207 113.733 177.749C116.822 195.745 120.86 222.46 123.174 240.214C127.123 270.486 134.222 311.111 136.99 319.278C141.475 332.503 148.793 343.596 161.036 355.724C175.062 369.617 189.806 377.624 208.811 381.667C211.195 382.174 213.144 383.424 213.144 384.447C213.144 385.469 211.319 390.901 209.087 396.518C194.387 433.521 190.035 447.029 190.158 455.261C190.33 466.85 195.871 476.182 205.704 481.445L211.144 484.357L389.688 484.714C591.781 485.118 577.97 485.807 587.63 474.833C598.385 462.614 598.172 453.644 586.398 423.035C573.435 389.336 571.703 384.791 569.127 377.711C567.792 374.045 563.268 362.347 559.07 351.715C538.728 300.185 525.042 258.577 526.867 253.818C527.456 252.285 529.566 251.735 534.858 251.735C546 251.735 555.554 253.977 565.785 258.993C580.999 266.454 589.044 275.858 597.774 296.393C599.334 300.059 608.748 321.955 618.697 345.05C628.645 368.146 638.708 391.703 641.058 397.399C643.408 403.095 646.431 408.343 647.774 409.063C649.125 409.786 661.476 410.371 675.368 410.371C701.095 410.371 704.392 409.748 702.7 405.209C702.255 404.016 687.256 370.945 669.369 331.719C651.482 292.493 635.558 257.1 633.983 253.068C631.741 247.33 631.113 242.838 631.095 232.405C631.073 220.217 631.427 218.321 635.234 210.282C637.523 205.446 653.318 180.735 670.335 155.368C688.921 127.661 701.091 108.283 700.812 106.837C700.39 104.636 698.239 104.397 675.705 104.051C662.15 103.841 649.766 103.989 648.184 104.379C645.537 105.028 637.34 116.051 615.163 148.781C600.969 169.73 595.601 175.039 581.571 182.008L568.673 188.413L543.213 188.783C528.058 189.003 516.947 188.62 515.763 187.839C513.075 186.062 512.016 170.854 511.861 131.757C511.795 114.527 511.144 98.2919 510.418 95.6777C508.623 89.2136 500.405 79.9354 493.832 76.9493C488.734 74.635 482.962 74.4991 393.109 74.5791C340.686 74.6257 296.043 75.1883 293.902 75.8281Z" fill="#977C5A"/>
</svg>
