<svg width="800" height="800" viewBox="0 0 800 800" fill="none" xmlns="http://www.w3.org/2000/svg">
<path d="M727.14 326.981H472.79V72.8426C472.79 32.6153 440.333 0 400.106 0C359.878 0 327.439 32.6153 327.439 72.8602V327.157H72.9658C32.7385 327.157 0.0351426 359.773 0.052763 400.018C0.0351426 420.122 8.15813 438.553 21.3205 451.716C34.5006 464.913 52.6848 473.248 72.772 473.248H327.439V727.193C327.439 747.315 335.421 765.535 348.601 778.679C361.781 791.859 379.913 800.018 400.035 800.018C440.245 800.018 472.79 767.402 472.79 727.193V473.23H727.14C767.367 473.23 799.982 440.333 799.965 400.106C799.947 359.896 767.332 326.981 727.14 326.981Z" fill="#774A47"/>
</svg>
