<svg width="28" height="28" viewBox="0 0 28 28" fill="none" xmlns="http://www.w3.org/2000/svg">
<g clip-path="url(#clip0_38_50)">
<path d="M5.3252 12.0547C5.3252 8.1084 8.5332 4.90039 12.4795 4.90039C16.4258 4.90039 19.6338 8.1084 19.6338 12.0547C19.6338 13.5928 19.1328 15.0166 18.2979 16.168L22.3145 20.1934C22.5518 20.4395 22.6748 20.7646 22.6748 21.1162C22.6748 21.8457 22.1387 22.4082 21.3916 22.4082C21.0488 22.4082 20.7061 22.2939 20.46 22.0391L16.417 17.9961C15.292 18.7607 13.9473 19.209 12.4795 19.209C8.5332 19.209 5.3252 16.001 5.3252 12.0547ZM7.18848 12.0547C7.18848 14.9727 9.55273 17.3457 12.4795 17.3457C15.3975 17.3457 17.7705 14.9727 17.7705 12.0547C17.7705 9.13672 15.3975 6.76367 12.4795 6.76367C9.55273 6.76367 7.18848 9.13672 7.18848 12.0547Z" fill="white"/>
</g>
<defs>
<clipPath id="clip0_38_50">
<rect width="28" height="28" fill="white"/>
</clipPath>
</defs>
</svg>
